Coordinates
version=1
nRows=26
nColumns=24
inDegrees=yes

Units are S.I. units (second, meters, Newtons, ...)
Angles are in degrees.

endheader
time	pelvis_tilt	pelvis_list	pelvis_rotation	pelvis_tx	pelvis_ty	pelvis_tz	hip_flexion_r	hip_adduction_r	hip_rotation_r	knee_angle_r	ankle_angle_r	subtalar_angle_r	mtp_angle_r	hip_flexion_l	hip_adduction_l	hip_rotation_l	knee_angle_l	ankle_angle_l	subtalar_angle_l	mtp_angle_l	lumbar_extension	lumbar_bending	lumbar_rotation
      0.94666667	      7.28347850	     -5.64282033	      3.36585460	     -0.34126606	      1.00889840	      0.33793586	      2.71277775	     12.19632506	     -1.03717788	    -17.49103963	      5.24499918	    -14.89701521	     -6.88684675	      7.09257450	     -7.74893295	      1.79509259	    -71.36213442	     -4.85215868	     -9.46288341	      2.06397240	     -7.19412457	      9.93308331	      0.58231105
      0.95083333	      7.33367459	     -5.55183565	      3.15637192	     -0.33662408	      1.00969485	      0.33834648	      2.14050688	     12.11788722	     -0.83240989	    -17.13797757	      5.32065793	    -14.65231351	     -6.87786065	      7.69630776	     -7.61372535	      1.71801390	    -71.45768605	     -4.25068240	     -9.56260740	      2.01943537	     -7.35468391	      9.82358059	      0.91937760
      0.95500000	      7.35729230	     -5.43008149	      2.95868056	     -0.33195142	      1.01046665	      0.33872002	      1.59343644	     11.99660739	     -0.66474721	    -16.78110117	      5.41604414	    -14.44286437	     -6.86520736	      8.31121122	     -7.43289498	      1.65643456	    -71.48508883	     -3.70861367	     -9.69968664	      1.95711744	     -7.44379175	      9.66281351	      1.18299294
      0.95916667	      7.38280256	     -5.31949673	      2.75604726	     -0.32730756	      1.01119167	      0.33909131	      1.04808999	     11.88512966	     -0.48221690	    -16.42476810	      5.50299755	    -14.24191563	     -6.84869073	      8.91713810	     -7.26577091	      1.59455657	    -71.47436767	     -3.16597381	     -9.79094208	      1.89405655	     -7.54843452	      9.53028903	      1.40825458
      0.96333333	      7.37083875	     -5.21112152	      2.56606574	     -0.32265605	      1.01184278	      0.33941888	      0.54479497	     11.76975588	     -0.31691945	    -16.06579996	      5.59080704	    -14.10836211	     -6.83995103	      9.55698246	     -7.09071587	      1.55146016	    -71.41646018	     -2.66489062	     -9.93110847	      1.87962122	     -7.58299199	      9.40688444	      1.49922174
      0.96750000	      7.42037391	     -5.10178693	      2.34113228	     -0.31804008	      1.01253487	      0.33981167	     -0.02254139	     11.65197876	     -0.12092544	    -15.71077818	      5.66145695	    -13.84582519	     -6.81366540	     10.10735569	     -6.93928153	      1.45711213	    -71.30890908	     -2.13330575	     -9.91060794	      1.81178662	     -7.73539799	      9.26177624	      1.85098850
      0.97166667	      7.40184942	     -5.00013773	      2.11920870	     -0.31343914	      1.01309240	      0.34017084	     -0.50183437	     11.53511087	      0.06189273	    -15.37765368	      5.73003422	    -13.66642094	     -6.79349494	     10.73089758	     -6.78518503	      1.37631145	    -71.16840450	     -1.63537422	     -9.97652014	      1.77222026	     -7.79060262	      9.12513672	      2.01666095
      0.97583333	      7.41985097	     -4.88344040	      1.90832181	     -0.30881846	      1.01368868	      0.34049870	     -1.03233408	     11.39719885	      0.22756188	    -15.01944578	      5.81482883	    -13.42722081	     -6.75690905	     11.29310783	     -6.61179601	      1.30989444	    -70.96334594	     -1.17338152	     -9.93989961	      1.70183473	     -7.87996167	      8.99024864	      2.31137129
      0.98000000	      7.42074053	     -4.78554649	      1.68268027	     -0.30422816	      1.01421587	      0.34084442	     -1.53280714	     11.27741583	      0.41372100	    -14.67853848	      5.87271024	    -13.23280252	     -6.72847536	     11.86598982	     -6.46597871	      1.22620712	    -70.72440564	     -0.71336051	     -9.94235791	      1.65971986	     -7.96081221	      8.85451107	      2.48014261
      0.98416667	      7.39232823	     -4.68194537	      1.46538252	     -0.29962361	      1.01467865	      0.34114457	     -2.00299886	     11.14453742	      0.58410956	    -14.33067949	      5.94259511	    -13.06509259	     -6.70669450	     12.45966387	     -6.30618934	      1.15689017	    -70.44013379	     -0.28749568	     -9.92394608	      1.63651760	     -7.97279859	      8.74339307	      2.62927502
      0.98833333	      7.42626428	     -4.58572285	      1.25471352	     -0.29505048	      1.01518297	      0.34146161	     -2.54307449	     11.01993256	      0.74993745	    -13.96984865	      6.00643020	    -12.81392711	     -6.65683403	     12.97315081	     -6.16417749	      1.09363914	    -70.11096212	      0.12995395	     -9.77523045	      1.57750088	     -8.10119062	      8.61415424	      2.96283834
      0.99250000	      7.40053994	     -4.49742983	      1.03554063	     -0.29049176	      1.01554483	      0.34177798	     -3.00327216	     10.90117141	      0.92952908	    -13.63722761	      6.06572317	    -12.61076661	     -6.60821662	     13.54764804	     -6.03256555	      1.02334715	    -69.75622186	      0.53609019	     -9.66775108	      1.52905992	     -8.14841298	      8.49655692	      3.17390695
      0.99666667	      7.41372290	     -4.40403359	      0.81779368	     -0.28592233	      1.01596350	      0.34206510	     -3.51384462	     10.76997966	      1.09343999	    -13.28431754	      6.12054833	    -12.40926103	     -6.55493482	     14.05420754	     -5.89087631	      0.95793484	    -69.33773473	      0.91383527	     -9.53937017	      1.48297362	     -8.22849714	      8.37640427	      3.39292924
      1.00083333	      7.36614381	     -4.30570836	      0.59005652	     -0.28136856	      1.01624781	      0.34235864	     -3.94098239	     10.63187823	      1.27292953	    -12.96483049	      6.16936664	    -12.23941006	     -6.52262526	     14.61924957	     -5.74552706	      0.88517359	    -68.88834651	      1.27646524	     -9.42872105	      1.46475775	     -8.24006550	      8.24668126	      3.52273649
      1.00500000	      7.38619079	     -4.23244777	      0.38946522	     -0.27682337	      1.01657857	      0.34261587	     -4.45521924	     10.51868683	      1.42544637	    -12.60788622	      6.22634471	    -12.02298194	     -6.46173846	     15.10247484	     -5.62788344	      0.84483105	    -68.40310046	      1.63829593	     -9.19222565	      1.43013797	     -8.33320420	      8.15597818	      3.79849055
      1.00916667	      7.34519385	     -4.14322027	      0.16850659	     -0.27228664	      1.01679221	      0.34289719	     -4.88413874	     10.38685769	      1.60757532	    -12.29197526	      6.27059124	    -11.85644839	     -6.42447371	     15.63596890	     -5.49694184	      0.78056583	    -67.87477569	      1.97181798	     -9.02972954	      1.41633574	     -8.35480761	      8.03226676	      3.93367126
      1.01333333	      7.32601160	     -4.06812699	     -0.04258996	     -0.26775356	      1.01700179	      0.34315441	     -5.34263607	     10.26670225	      1.77745273	    -11.95712241	      6.31077086	    -11.67142293	     -6.38007532	     16.13351834	     -5.38006867	      0.73586406	    -67.31114861	      2.30685809	     -8.78469360	      1.40345351	     -8.40231370	      7.93335966	      4.12917899
      1.01750000	      7.34211574	     -4.00362955	     -0.22242082	     -0.26322434	      1.01721370	      0.34337344	     -5.84511143	     10.15909856	      1.92427091	    -11.60451368	      6.36832875	    -11.48970476	     -6.30198388	     16.58417754	     -5.27044240	      0.72025576	    -66.70906153	      2.62433091	     -8.52118414	      1.37782151	     -8.48769139	      7.85593929	      4.39707072
      1.02166667	      7.32673604	     -3.93986311	     -0.41652969	     -0.25869960	      1.01734903	      0.34360349	     -6.30362163	     10.04890692	      2.08595470	    -11.27101233	      6.41189999	    -11.32770082	     -6.23482676	     17.05359153	     -5.16752044	      0.69093497	    -66.07028879	      2.92629881	     -8.26164332	      1.36247126	     -8.53047776	      7.76681054	      4.57484100
      1.02583333	      7.29632556	     -3.86651403	     -0.61602897	     -0.25418369	      1.01743057	      0.34382932	     -6.73373652	      9.92590277	      2.25674861	    -10.96075635	      6.45289337	    -11.17853289	     -6.19097944	     17.52145935	     -5.05301429	      0.65989555	    -65.38812952	      3.20995916	     -8.02084979	      1.35841681	     -8.56060269	      7.67037787	      4.70068737
      1.03000000	      7.27331798	     -3.79657105	     -0.80113931	     -0.24966729	      1.01748055	      0.34403875	     -7.17266521	      9.80576365	      2.41005554	    -10.64485381	      6.50149878	    -11.02073079	     -6.14514654	     17.96931259	     -4.94324982	      0.64042442	    -64.66995327	      3.48796952	     -7.74602114	      1.35709518	     -8.59985396	      7.57388900	      4.86260308
      1.03416667	      7.27002155	     -3.74673113	     -0.97243243	     -0.24515822	      1.01750705	      0.34423370	     -7.63357966	      9.70648673	      2.55824346	    -10.32388303	      6.55203495	    -10.86484790	     -6.09491303	     18.38625459	     -4.85739786	      0.63329293	    -63.92324512	      3.76036071	     -7.46617550	      1.35742272	     -8.66221442	      7.50239304	      5.03698997
      1.03833333	      7.25536713	     -3.69134174	     -1.13847803	     -0.24064010	      1.01748423	      0.34441377	     -8.07563557	      9.60012016	      2.70049273	    -10.01608613	      6.60699685	    -10.71818000	     -6.04466276	     18.79843224	     -4.76343000	      0.63188154	    -63.13522739	      4.01138945	     -7.20005926	      1.35965820	     -8.70645443	      7.42228336	      5.20009409
      1.04250000	      7.23878153	     -3.65622164	     -1.28313144	     -0.23613063	      1.01739442	      0.34456754	     -8.51355372	      9.51683468	      2.82555879	     -9.70771948	      6.67454440	    -10.56704463	     -5.97107324	     19.20869281	     -4.69035892	      0.65194082	    -62.32715174	      4.25912667	     -6.92677840	      1.36256536	     -8.75466210	      7.37004395	      5.39693030
      1.04666667	      7.21523006	     -3.60571296	     -1.44840065	     -0.23161680	      1.01729152	      0.34473692	     -8.93111523	      9.41145546	      2.96822279	     -9.42674776	      6.73221768	    -10.42839847	     -5.92583216	     19.59668416	     -4.60812815	      0.64484552	    -61.46243491	      4.48430114	     -6.69260221	      1.36851846	     -8.78870205	      7.29497255	      5.50478385
      1.05083333	      7.19561356	     -3.57501302	     -1.58975996	     -0.22710261	      1.01712492	      0.34488006	     -9.35312118	      9.32955494	      3.09307781	     -9.14183180	      6.80162838	    -10.28581150	     -5.88019959	     19.97518218	     -4.54536362	      0.66006606	    -60.57815656	      4.70841418	     -6.44864097	      1.37636115	     -8.82763292	      7.24367350	      5.63880352
